<svg xmlns="http://www.w3.org/2000/svg" version="1.1" xmlns:xlink="http://www.w3.org/1999/xlink" xmlns:svgjs="http://svgjs.dev/svgjs" width="1000" height="1000" viewBox="0 0 1000 1000"><rect width="1000" height="1000" fill="#000000"></rect><g transform="matrix(0.7,0,0,0.7,149.57575757575756,428.91823658644483)"><svg viewBox="0 0 396 81" data-background-color="#ffffff" preserveAspectRatio="xMidYMid meet" height="204" width="1000" xmlns="http://www.w3.org/2000/svg" xmlns:xlink="http://www.w3.org/1999/xlink"><g id="tight-bounds" transform="matrix(1,0,0,1,0.2400000000000091,-0.1805123494539771)"><svg viewBox="0 0 395.52 81.36102469890795" height="81.36102469890795" width="395.52"><g><svg viewBox="0 0 395.52 81.36102469890795" height="81.36102469890795" width="395.52"><g><svg viewBox="0 0 395.52 81.36102469890795" height="81.36102469890795" width="395.52"><g><svg viewBox="0 0 395.52 81.36102469890795" height="81.36102469890795" width="395.52"><g><svg viewBox="0 0 395.52 81.36102469890795" height="81.36102469890795" width="395.52"><rect width="395.52" height="81.36102469890795" x="0" y="0" opacity="1" fill="#f93c4a" data-fill-palette-color="tertiary"></rect><g transform="matrix(1,0,0,1,23.607599999999998,23.607599999999998)"><svg width="348.3048" viewBox="5.76 -37.87 391.2 38.36" height="34.14582469890796" data-palette-color="#ffffff"><path d="M20.34-11.72L20.34-11.72Q19.34-11.67 16.83-11.67 14.33-11.67 9.91-12.33L9.91-12.33 9.91 0 5.76 0 5.76-37.21Q12.87-37.87 19.9-37.87L19.9-37.87Q25.81-37.87 28.17-35.21L28.17-35.21Q30.18-32.96 30.18-27.78L30.18-27.78 30.18-24.9Q30.18-20.9 29.3-18.07L29.3-18.07Q27.42-12.16 20.34-11.72ZM20.07-34.35L20.07-34.35Q13.38-34.35 9.91-34.08L9.91-34.08 9.91-15.77Q14.18-15.21 17.52-15.21 20.85-15.21 22.3-15.69 23.75-16.16 24.56-17.29L24.56-17.29Q25.93-19.19 25.93-24.85L25.93-24.85 25.93-27.88Q25.93-31.37 24.56-32.86L24.56-32.86Q23.24-34.35 20.07-34.35ZM39.06 0L39.06-37.23Q46.99-37.84 52.39-37.84L52.39-37.84 52.88-37.84Q58.76-37.84 61.13-35.21L61.13-35.21Q63.11-32.93 63.11-27.78L63.11-27.78Q63.11-21.19 61.23-17.97L61.23-17.97Q59.3-14.7 54.83-13.87L54.83-13.87Q55.66-12.84 56.47-11.72L56.47-11.72 57.91-9.64 64.33 0 59.45 0 53.83-8.84Q51.49-12.4 50.36-13.55L50.36-13.55 50.1-13.55Q48.36-13.57 46.75-13.62L46.75-13.62 43.21-13.77 43.21 0 39.06 0ZM43.21-34.13L43.21-17.07Q45.77-16.94 51.27-16.94L51.27-16.94Q55.78-16.94 57.42-19.48L57.42-19.48Q58.81-21.7 58.81-27.25L58.81-27.25Q58.81-31.91 56.74-33.35L56.74-33.35Q55.52-34.2 54.06-34.3 52.61-34.4 51.52-34.4 50.44-34.4 49.42-34.39 48.41-34.38 47.41-34.35 46.41-34.33 45.38-34.28L45.38-34.28 43.21-34.13ZM86.2 0.49L84.69 0.49Q76 0.49 73.21-4.98L73.21-4.98Q71.58-8.15 71.28-13.45L71.28-13.45Q71.16-15.94 71.16-18.87 71.16-21.8 71.33-24.43 71.5-27.05 72-29.17 72.5-31.3 73.42-32.92 74.34-34.55 75.83-35.64L75.83-35.64Q78.9-37.84 84.69-37.84L84.69-37.84 86.2-37.84Q95.26-37.84 97.8-32.96L97.8-32.96Q99.38-29.91 99.58-24.46L99.58-24.46Q99.68-21.8 99.68-18.84 99.68-15.87 99.53-13.37 99.38-10.86 98.92-8.74 98.46-6.62 97.57-4.91 96.67-3.2 95.16-2L95.16-2Q92.04 0.49 86.2 0.49L86.2 0.49ZM84.69-3.03L86.15-3.03Q88.84-3.03 90.61-3.61 92.38-4.2 93.4-5.66L93.4-5.66Q95.31-8.37 95.31-16.06L95.31-16.06 95.31-18.7Q95.31-22.39 95.11-25.27 94.92-28.15 94.06-30.13L94.06-30.13Q92.3-34.23 86.45-34.23L86.45-34.23 84.39-34.23Q78.44-34.23 76.78-30.4L76.78-30.4Q75.73-27.95 75.63-24.63 75.53-21.31 75.53-18.7L75.53-18.7 75.53-16.06Q75.53-8.86 77.68-5.91L77.68-5.91Q79.76-3.03 84.69-3.03L84.69-3.03ZM118.55 0.02L105.71-37.35 110.2-37.35 119.62-8.91 120.89-3.91 122.28-8.91 131.49-37.35 135.93-37.35 123.36 0.02 118.55 0.02ZM137.03-1.25L138.22-4.44Q138.22-4.44 138.78-4.17L138.78-4.17Q141.45-2.91 144.42-2.91L144.42-2.91Q147.01-2.91 148.09-4.52L148.09-4.52Q149.11-6.08 149.11-9.86L149.11-9.86 149.11-37.35 153.21-37.35 153.21-12.6Q153.21-8.03 152.83-6.15 152.46-4.27 151.88-3.13 151.31-1.98 150.33-1.17L150.33-1.17Q148.33 0.49 144.42 0.49L144.42 0.49Q141.05 0.49 138.1-0.73L138.1-0.73Q137.39-1.03 137.03-1.25L137.03-1.25ZM178.6-11.72L178.6-11.72Q177.6-11.67 175.1-11.67 172.59-11.67 168.18-12.33L168.18-12.33 168.18 0 164.03 0 164.03-37.21Q171.13-37.87 178.16-37.87L178.16-37.87Q184.07-37.87 186.44-35.21L186.44-35.21Q188.44-32.96 188.44-27.78L188.44-27.78 188.44-24.9Q188.44-20.9 187.56-18.07L187.56-18.07Q185.68-12.16 178.6-11.72ZM178.33-34.35L178.33-34.35Q171.64-34.35 168.18-34.08L168.18-34.08 168.18-15.77Q172.45-15.21 175.78-15.21 179.11-15.21 180.57-15.69 182.02-16.16 182.82-17.29L182.82-17.29Q184.19-19.19 184.19-24.85L184.19-24.85 184.19-27.88Q184.19-31.37 182.82-32.86L182.82-32.86Q181.51-34.35 178.33-34.35ZM209.8 0L209.8-37.35 231.26-37.35 231.26-33.74 213.95-33.74 213.95-19.07 228.96-19.07 228.96-15.48 213.95-15.48 213.95 0 209.8 0ZM239.38 0L239.38-37.35 243.51-37.35 243.51 0 239.38 0ZM260.04 0L260.04-33.74 250.08-33.74 250.08-37.35 274.49-37.35 274.49-33.74 264.19-33.74 264.19 0 260.04 0ZM280.54 0L280.54-37.35 283.84-37.35 301.02-10.21 303.25-5.59 302.71-10.72 302.71-37.35 306.49-37.35 306.49 0 303 0 285.94-27.08 283.79-31.27 284.33-26.29 284.33 0 280.54 0ZM318.04 0L318.04-37.35 339.21-37.35 339.21-33.74 322.19-33.74 322.19-20.85 335.91-20.85 335.91-17.26 322.19-17.26 322.19-3.59 339.87-3.59 339.87 0 318.04 0ZM343.52-2.47L345.14-5.88Q350.68-2.95 355.98-2.95L355.98-2.95Q362.13-2.95 363.18-6.88L363.18-6.88Q363.52-8.18 363.52-9.86L363.52-9.86 363.52-10.82Q363.52-12.52 363.28-13.57 363.03-14.62 362.25-15.28L362.25-15.28Q360.98-16.38 356.24-17.11L356.24-17.11Q352.02-17.77 350.41-18.36 348.8-18.95 347.76-19.64 346.72-20.34 345.99-21.39L345.99-21.39Q344.48-23.58 344.48-27.47L344.48-27.47 344.48-27.71Q344.48-35.77 351.17-37.35L351.17-37.35Q353.29-37.84 355.98-37.84L355.98-37.84 356.29-37.84Q362.57-37.84 366.55-36.04L366.55-36.04 365.28-32.3Q360.47-34.38 356.42-34.38L356.42-34.38 356.2-34.38Q351.73-34.38 350.04-32.69L350.04-32.69Q348.63-31.27 348.63-27.78L348.63-27.78 348.63-27.69Q348.63-23.71 350.82-22.46L350.82-22.46Q352.31-21.66 356.16-21.04 360-20.43 361.88-20.01 363.76-19.58 365.08-18.6L365.08-18.6Q367.82-16.55 367.82-10.82L367.82-10.82 367.82-10.5Q367.82-1.73 360.76-0.05L360.76-0.05Q358.59 0.49 356.66 0.49 354.73 0.49 353.16 0.35 351.58 0.22 349.95-0.12L349.95-0.12Q346.11-0.9 343.52-2.47L343.52-2.47ZM372.67-2.47L374.28-5.88Q379.83-2.95 385.12-2.95L385.12-2.95Q391.28-2.95 392.33-6.88L392.33-6.88Q392.67-8.18 392.67-9.86L392.67-9.86 392.67-10.82Q392.67-12.52 392.42-13.57 392.18-14.62 391.4-15.28L391.4-15.28Q390.13-16.38 385.39-17.11L385.39-17.11Q381.17-17.77 379.56-18.36 377.95-18.95 376.91-19.64 375.87-20.34 375.14-21.39L375.14-21.39Q373.62-23.58 373.62-27.47L373.62-27.47 373.62-27.71Q373.62-35.77 380.31-37.35L380.31-37.35Q382.44-37.84 385.12-37.84L385.12-37.84 385.44-37.84Q391.72-37.84 395.7-36.04L395.7-36.04 394.43-32.3Q389.62-34.38 385.56-34.38L385.56-34.38 385.34-34.38Q380.88-34.38 379.19-32.69L379.19-32.69Q377.78-31.27 377.78-27.78L377.78-27.78 377.78-27.69Q377.78-23.71 379.97-22.46L379.97-22.46Q381.46-21.66 385.31-21.04 389.15-20.43 391.03-20.01 392.91-19.58 394.23-18.6L394.23-18.6Q396.96-16.55 396.96-10.82L396.96-10.82 396.96-10.5Q396.96-1.73 389.91-0.05L389.91-0.05Q387.74 0.49 385.81 0.49 383.88 0.49 382.3 0.35 380.73 0.22 379.09-0.12L379.09-0.12Q375.26-0.9 372.67-2.47L372.67-2.47Z" opacity="1" transform="matrix(1,0,0,1,0,0)" fill="#ffffff" class="undefined-text-0" data-fill-palette-color="quaternary" id="text-0"></path></svg></g></svg></g></svg></g></svg></g></svg></g><defs></defs></svg><rect width="395.52" height="81.36102469890795" fill="none" stroke="none" visibility="hidden"></rect></g></svg></g></svg>