<svg id="visual" viewBox="0 0 900 600" width="900" height="600" xmlns="http://www.w3.org/2000/svg" xmlns:xlink="http://www.w3.org/1999/xlink" version="1.1"><rect x="0" y="0" width="900" height="600" fill="#001220"></rect><path d="M0 205L16.7 206.3C33.3 207.7 66.7 210.3 100 209.7C133.3 209 166.7 205 200 209.2C233.3 213.3 266.7 225.7 300 221C333.3 216.3 366.7 194.7 400 190.3C433.3 186 466.7 199 500 209.3C533.3 219.7 566.7 227.3 600 222.3C633.3 217.3 666.7 199.7 700 196.7C733.3 193.7 766.7 205.3 800 212.8C833.3 220.3 866.7 223.7 883.3 225.3L900 227L900 0L883.3 0C866.7 0 833.3 0 800 0C766.7 0 733.3 0 700 0C666.7 0 633.3 0 600 0C566.7 0 533.3 0 500 0C466.7 0 433.3 0 400 0C366.7 0 333.3 0 300 0C266.7 0 233.3 0 200 0C166.7 0 133.3 0 100 0C66.7 0 33.3 0 16.7 0L0 0Z" fill="#441b3b"></path><path d="M0 167L16.7 169C33.3 171 66.7 175 100 179.3C133.3 183.7 166.7 188.3 200 183.3C233.3 178.3 266.7 163.7 300 161.5C333.3 159.3 366.7 169.7 400 171.3C433.3 173 466.7 166 500 168.3C533.3 170.7 566.7 182.3 600 185.3C633.3 188.3 666.7 182.7 700 178.7C733.3 174.7 766.7 172.3 800 172.7C833.3 173 866.7 176 883.3 177.5L900 179L900 0L883.3 0C866.7 0 833.3 0 800 0C766.7 0 733.3 0 700 0C666.7 0 633.3 0 600 0C566.7 0 533.3 0 500 0C466.7 0 433.3 0 400 0C366.7 0 333.3 0 300 0C266.7 0 233.3 0 200 0C166.7 0 133.3 0 100 0C66.7 0 33.3 0 16.7 0L0 0Z" fill="#704f67"></path><path d="M0 106L16.7 110C33.3 114 66.7 122 100 129.2C133.3 136.3 166.7 142.7 200 145.5C233.3 148.3 266.7 147.7 300 138.7C333.3 129.7 366.7 112.3 400 110.7C433.3 109 466.7 123 500 128C533.3 133 566.7 129 600 126C633.3 123 666.7 121 700 116.2C733.3 111.3 766.7 103.7 800 107.8C833.3 112 866.7 128 883.3 136L900 144L900 0L883.3 0C866.7 0 833.3 0 800 0C766.7 0 733.3 0 700 0C666.7 0 633.3 0 600 0C566.7 0 533.3 0 500 0C466.7 0 433.3 0 400 0C366.7 0 333.3 0 300 0C266.7 0 233.3 0 200 0C166.7 0 133.3 0 100 0C66.7 0 33.3 0 16.7 0L0 0Z" fill="#9e8697"></path><path d="M0 78L16.7 77.2C33.3 76.3 66.7 74.7 100 77C133.3 79.3 166.7 85.7 200 91.5C233.3 97.3 266.7 102.7 300 101.7C333.3 100.7 366.7 93.3 400 87.5C433.3 81.7 466.7 77.3 500 75.8C533.3 74.3 566.7 75.7 600 79.5C633.3 83.3 666.7 89.7 700 88.3C733.3 87 766.7 78 800 76.3C833.3 74.7 866.7 80.3 883.3 83.2L900 86L900 0L883.3 0C866.7 0 833.3 0 800 0C766.7 0 733.3 0 700 0C666.7 0 633.3 0 600 0C566.7 0 533.3 0 500 0C466.7 0 433.3 0 400 0C366.7 0 333.3 0 300 0C266.7 0 233.3 0 200 0C166.7 0 133.3 0 100 0C66.7 0 33.3 0 16.7 0L0 0Z" fill="#cec1ca"></path><path d="M0 29L16.7 33C33.3 37 66.7 45 100 45.3C133.3 45.7 166.7 38.3 200 35.3C233.3 32.3 266.7 33.7 300 38.5C333.3 43.3 366.7 51.7 400 54.5C433.3 57.3 466.7 54.7 500 50.2C533.3 45.7 566.7 39.3 600 40.7C633.3 42 666.7 51 700 54.5C733.3 58 766.7 56 800 55.7C833.3 55.3 866.7 56.7 883.3 57.3L900 58L900 0L883.3 0C866.7 0 833.3 0 800 0C766.7 0 733.3 0 700 0C666.7 0 633.3 0 600 0C566.7 0 533.3 0 500 0C466.7 0 433.3 0 400 0C366.7 0 333.3 0 300 0C266.7 0 233.3 0 200 0C166.7 0 133.3 0 100 0C66.7 0 33.3 0 16.7 0L0 0Z" fill="#ffffff"></path></svg>