<svg id="visual" viewBox="0 0 960 300" width="960" height="300" xmlns="http://www.w3.org/2000/svg" xmlns:xlink="http://www.w3.org/1999/xlink" version="1.1"><rect x="0" y="0" width="960" height="300" fill="#fff"></rect><path d="M0 217L17.8 218.8C35.7 220.7 71.3 224.3 106.8 231.3C142.3 238.3 177.7 248.7 213.2 248.2C248.7 247.7 284.3 236.3 320 233.3C355.7 230.3 391.3 235.7 426.8 236.5C462.3 237.3 497.7 233.7 533.2 232.2C568.7 230.7 604.3 231.3 640 232.2C675.7 233 711.3 234 746.8 235.8C782.3 237.7 817.7 240.3 853.2 236.2C888.7 232 924.3 221 942.2 215.5L960 210L960 0L942.2 0C924.3 0 888.7 0 853.2 0C817.7 0 782.3 0 746.8 0C711.3 0 675.7 0 640 0C604.3 0 568.7 0 533.2 0C497.7 0 462.3 0 426.8 0C391.3 0 355.7 0 320 0C284.3 0 248.7 0 213.2 0C177.7 0 142.3 0 106.8 0C71.3 0 35.7 0 17.8 0L0 0Z" fill="#f3cbff"></path><path d="M0 179L17.8 182.5C35.7 186 71.3 193 106.8 198.7C142.3 204.3 177.7 208.7 213.2 210.5C248.7 212.3 284.3 211.7 320 209.3C355.7 207 391.3 203 426.8 201.8C462.3 200.7 497.7 202.3 533.2 200C568.7 197.7 604.3 191.3 640 183.2C675.7 175 711.3 165 746.8 170.2C782.3 175.3 817.7 195.7 853.2 205.5C888.7 215.3 924.3 214.7 942.2 214.3L960 214L960 0L942.2 0C924.3 0 888.7 0 853.2 0C817.7 0 782.3 0 746.8 0C711.3 0 675.7 0 640 0C604.3 0 568.7 0 533.2 0C497.7 0 462.3 0 426.8 0C391.3 0 355.7 0 320 0C284.3 0 248.7 0 213.2 0C177.7 0 142.3 0 106.8 0C71.3 0 35.7 0 17.8 0L0 0Z" fill="#a999c7"></path><path d="M0 145L17.8 139.3C35.7 133.7 71.3 122.3 106.8 124.3C142.3 126.3 177.7 141.7 213.2 144.3C248.7 147 284.3 137 320 135.8C355.7 134.7 391.3 142.3 426.8 148.3C462.3 154.3 497.7 158.7 533.2 159.3C568.7 160 604.3 157 640 152.7C675.7 148.3 711.3 142.7 746.8 141.8C782.3 141 817.7 145 853.2 145.2C888.7 145.3 924.3 141.7 942.2 139.8L960 138L960 0L942.2 0C924.3 0 888.7 0 853.2 0C817.7 0 782.3 0 746.8 0C711.3 0 675.7 0 640 0C604.3 0 568.7 0 533.2 0C497.7 0 462.3 0 426.8 0C391.3 0 355.7 0 320 0C284.3 0 248.7 0 213.2 0C177.7 0 142.3 0 106.8 0C71.3 0 35.7 0 17.8 0L0 0Z" fill="#67698d"></path><path d="M0 92L17.8 88.2C35.7 84.3 71.3 76.7 106.8 80.3C142.3 84 177.7 99 213.2 103.7C248.7 108.3 284.3 102.7 320 94.8C355.7 87 391.3 77 426.8 75.5C462.3 74 497.7 81 533.2 87.7C568.7 94.3 604.3 100.7 640 99.5C675.7 98.3 711.3 89.7 746.8 91.3C782.3 93 817.7 105 853.2 111.5C888.7 118 924.3 119 942.2 119.5L960 120L960 0L942.2 0C924.3 0 888.7 0 853.2 0C817.7 0 782.3 0 746.8 0C711.3 0 675.7 0 640 0C604.3 0 568.7 0 533.2 0C497.7 0 462.3 0 426.8 0C391.3 0 355.7 0 320 0C284.3 0 248.7 0 213.2 0C177.7 0 142.3 0 106.8 0C71.3 0 35.7 0 17.8 0L0 0Z" fill="#2f3c54"></path><path d="M0 74L17.8 68.8C35.7 63.7 71.3 53.3 106.8 46.3C142.3 39.3 177.7 35.7 213.2 32.7C248.7 29.7 284.3 27.3 320 26.7C355.7 26 391.3 27 426.8 30.8C462.3 34.7 497.7 41.3 533.2 42.2C568.7 43 604.3 38 640 41.2C675.7 44.3 711.3 55.7 746.8 59C782.3 62.3 817.7 57.7 853.2 51.2C888.7 44.7 924.3 36.3 942.2 32.2L960 28L960 0L942.2 0C924.3 0 888.7 0 853.2 0C817.7 0 782.3 0 746.8 0C711.3 0 675.7 0 640 0C604.3 0 568.7 0 533.2 0C497.7 0 462.3 0 426.8 0C391.3 0 355.7 0 320 0C284.3 0 248.7 0 213.2 0C177.7 0 142.3 0 106.8 0C71.3 0 35.7 0 17.8 0L0 0Z" fill="#001220"></path></svg>